<svg version="1.1" xmlns="http://www.w3.org/2000/svg" viewBox="0 0 2048 2048" width="512" height="512">
<rect width="2048" height="2048" fill="#000000"/>
<path fill="rgb(254,254,254)" d="M 1015.67 795.465 C 1024.56 781.482 1038.35 762.861 1045.88 750.276 C 1065.08 720.335 1083.37 684.656 1104.39 656.188 C 1133.01 617.416 1154.53 570.969 1187.71 536.493 C 1214.09 509.122 1245.91 487.588 1281.13 473.284 C 1400.72 425.413 1542.51 468.588 1608.29 582.151 C 1629.73 620.071 1638.65 663.246 1646.09 705.662 C 1659.51 782.193 1676.28 858.31 1686.53 935.319 C 1687.67 941.916 1686.49 950.996 1688.02 957.384 C 1691.55 972.092 1695.28 986.069 1697.27 1001.11 C 1697.9 1005.94 1703.27 1013.1 1704.17 1018.88 C 1710.6 1060.36 1719.1 1101.37 1726.28 1142.71 C 1728.38 1154.84 1727.51 1168.84 1732.48 1180.19 C 1736.4 1189.14 1736.79 1197.95 1738.67 1207.39 C 1742.69 1227.35 1746.29 1247.39 1749.46 1267.5 C 1750.16 1272.02 1751.52 1288.08 1752.88 1291.18 C 1753.2 1302.8 1752.24 1316.71 1751.94 1328.65 C 1751.37 1351.79 1752.43 1376.04 1746.76 1398.65 C 1743.96 1404.52 1740.53 1417.4 1737.46 1424.68 C 1674.05 1575.04 1483.97 1615.95 1352.44 1530.55 C 1335.52 1519.57 1324.13 1507.1 1309.2 1494.1 C 1331.09 1475.77 1367.94 1418.87 1376.48 1391.25 C 1400.11 1409.5 1418.36 1429.1 1445.99 1441.56 C 1478.18 1456.07 1518.99 1458.86 1552.16 1446.26 C 1581.19 1435.26 1604.68 1413.18 1617.45 1384.88 C 1637.77 1338.82 1625.07 1294.27 1616.24 1247.43 C 1609.48 1211.61 1605.02 1175.42 1599.04 1139.66 C 1593.74 1107.95 1585.06 1076.28 1579.34 1044.2 L 1531.7 782.425 C 1527.39 759.322 1525.99 734.482 1522 711.767 C 1519.8 699.244 1510.18 670.637 1505.79 658.544 C 1494.31 626.928 1468.5 602.325 1437.73 589.237 C 1420.63 581.967 1387.32 578.83 1368.64 579.482 C 1354.11 581.638 1335.57 585.32 1322.38 590.849 C 1285.94 606.126 1264.21 630.575 1245.25 664.041 C 1232.42 686.697 1216.12 711.833 1200.77 732.852 C 1197.45 737.395 1191.79 742.07 1188.68 747.006 C 1180.65 761.377 1174.36 776.851 1165.57 790.838 C 1153.54 808.943 1142.04 829.902 1130.22 847.706 C 1126.05 854.095 1121.62 860.304 1116.92 866.316 C 1115.23 868.455 1107.79 876.753 1107.22 878.29 C 1103.88 887.262 1098.36 896.61 1094.9 904.939 C 1103.45 920.544 1125.04 952.281 1135.34 967.97 L 1194.82 1059.02 C 1225.07 1104.52 1261.52 1155.88 1272.19 1209.5 C 1284.7 1272.34 1271.67 1331.3 1237.65 1384.82 C 1201.79 1440.47 1145.13 1479.44 1080.33 1493.02 C 1022.93 1505.54 972.882 1502.85 917.713 1481.99 C 850.66 1458.29 786.85 1398.28 767.801 1328.82 C 765.116 1319.03 764.285 1305.22 761.854 1294.42 C 740.124 1197.91 789.92 1131.53 839.491 1054.87 L 935.337 906.261 C 925.054 885.765 909.643 864.459 897.267 845.01 C 883.886 823.98 870.391 802.957 857.02 781.922 L 801.735 694.628 C 786.639 670.711 772.32 646.395 753.404 624.937 C 705.174 570.225 607.132 563.723 553.46 613.757 C 522.253 642.848 514.684 675.775 507.432 716.119 C 501.967 746.522 497.014 777.346 491.813 808.089 L 446.429 1088.43 C 439.1 1136.08 428.854 1183.48 422.2 1231.43 C 415.457 1280.03 400.239 1328.09 417.523 1376.24 C 435.318 1425.81 480.183 1454.02 532.026 1454.18 C 586.609 1454.86 617.41 1427.49 654.074 1391.54 C 665.234 1422.39 698.28 1471.86 722.343 1493.77 C 713.176 1503.03 702.482 1514.86 692.457 1522.61 C 546.52 1635.41 311.052 1556.31 281.498 1368.44 C 280.387 1361.38 281.97 1353.18 281.419 1346.03 C 280.783 1337.79 278.77 1329.66 278.584 1321.38 C 279.4 1288.49 287.283 1254.26 292.532 1222.01 C 304.827 1146.64 317.705 1071.36 331.165 996.191 L 369.441 776.284 L 383.375 698.07 C 387.466 674.96 390.561 652.809 397.487 630.394 C 431.066 524.915 526.969 458.157 636.418 454.807 C 719.334 452.27 792.762 484.381 847.975 546.261 C 869.84 570.766 885.277 599.039 903.042 626.492 L 968.499 725.584 C 975.624 736.519 982.902 747.568 990.228 758.368 C 998.124 770.01 1005.42 785.992 1015.67 795.465 z M 1018.51 1354.98 C 1050.45 1352.3 1076.52 1341.56 1097.55 1316.36 C 1113.63 1297.19 1121.23 1272.32 1118.62 1247.44 C 1115.66 1217.28 1093.19 1188.24 1077.4 1162.97 C 1057.05 1130.37 1035.37 1098.9 1015.68 1065.83 C 1006.93 1082.37 996.433 1097.46 986.255 1113.14 L 948.023 1172.72 C 937.084 1189.84 923.334 1209.34 917.342 1228.59 C 911.405 1247.31 911.303 1267.41 917.05 1286.2 C 924.863 1311.35 944.09 1330.68 967.138 1342.62 C 982.984 1350.91 1000.63 1355.15 1018.51 1354.98 z"/>
</svg>
