<?xml version="1.0" encoding="UTF-8"?>
<svg version="1.1" xmlns="http://www.w3.org/2000/svg" width="200" height="200">
<path d="M0 0 C1.87975525 -0.01073296 1.87975525 -0.01073296 3.79748535 -0.02168274 C5.18386816 -0.02452283 6.57025124 -0.02723458 7.95663452 -0.02983093 C9.4188147 -0.03609854 10.8809933 -0.0427456 12.34317017 -0.04974365 C17.14318743 -0.0707551 21.9432049 -0.08114486 26.74325562 -0.09111023 C28.39854321 -0.09515919 30.05383063 -0.09927616 31.70911789 -0.10346031 C39.48856887 -0.12250737 47.26801041 -0.13673814 55.04748023 -0.14507228 C64.01267201 -0.1548364 72.97761636 -0.18113629 81.94272101 -0.22157317 C88.88133149 -0.25178997 95.81987127 -0.26654651 102.75854623 -0.26985329 C106.898231 -0.27219787 111.03765128 -0.28108041 115.17726517 -0.30631447 C119.07616274 -0.32969727 122.97462362 -0.33378785 126.8735733 -0.32355309 C128.29811689 -0.32306005 129.72268272 -0.32931159 131.14715958 -0.34310913 C143.25126179 -0.45371195 151.99607326 1.48273452 160.91122437 9.92451477 C166.6484861 16.36337458 169.00544122 22.73468102 169.03886414 31.25547791 C169.04959709 33.13523315 169.04959709 33.13523315 169.06054688 35.05296326 C169.06338697 36.43934606 169.06609872 37.82572914 169.06869507 39.21211243 C169.07496267 40.67429261 169.08160974 42.1364712 169.08860779 43.59864807 C169.10961923 48.39866534 169.120009 53.19868281 169.12997437 57.99873352 C169.13402333 59.65402111 169.13814029 61.30930854 169.14232445 62.96459579 C169.1613715 70.74404678 169.17560228 78.52348832 169.18393642 86.30295813 C169.19370054 95.26814992 169.22000043 104.23309427 169.26043731 113.19819891 C169.2906541 120.13680939 169.30541064 127.07534917 169.30871743 134.01402414 C169.31106201 138.1537089 169.31994455 142.29312919 169.3451786 146.43274307 C169.3685614 150.33164065 169.37265198 154.23010153 169.36241722 158.12905121 C169.36192418 159.5535948 169.36817573 160.97816063 169.38197327 162.40263748 C169.49257609 174.5067397 167.55612961 183.25155117 159.11434937 192.16670227 C152.67548955 197.903964 146.30418311 200.26091913 137.78338623 200.29434204 C135.90363098 200.305075 135.90363098 200.305075 133.98590088 200.31602478 C132.59951807 200.31886487 131.21313499 200.32157662 129.82675171 200.32417297 C128.36457153 200.33044058 126.90239293 200.33708764 125.44021606 200.34408569 C120.6401988 200.36509714 115.84018133 200.3754869 111.04013062 200.38545227 C109.38484302 200.38950123 107.7295556 200.3936182 106.07426834 200.39780235 C98.29481736 200.41684941 90.51537582 200.43108018 82.735906 200.43941432 C73.77071422 200.44917844 64.80576987 200.47547833 55.84066522 200.51591522 C48.90205474 200.54613201 41.96351496 200.56088855 35.02484 200.56419533 C30.88515523 200.56653991 26.74573495 200.57542245 22.60612106 200.60065651 C18.70722349 200.62403931 14.80876261 200.62812989 10.90981293 200.61789513 C9.48526934 200.61740209 8.06070351 200.62365363 6.63622665 200.63745117 C-5.46787556 200.748054 -14.21268703 198.81160752 -23.12783813 190.36982727 C-28.86509987 183.93096746 -31.22205499 177.55966102 -31.25547791 169.03886414 C-31.26263321 167.78569397 -31.26978851 166.5325238 -31.27716064 165.24137878 C-31.28000074 163.85499598 -31.28271249 162.4686129 -31.28530884 161.08222961 C-31.29157644 159.62004943 -31.29822351 158.15787084 -31.30522156 156.69569397 C-31.326233 151.8956767 -31.33662277 147.09565924 -31.34658813 142.29560852 C-31.3506371 140.64032093 -31.35475406 138.9850335 -31.35893822 137.32974625 C-31.37798527 129.55029526 -31.39221605 121.77085372 -31.40055019 113.99138391 C-31.41031431 105.02619212 -31.4366142 96.06124777 -31.47705108 87.09614313 C-31.50726787 80.15753265 -31.52202441 73.21899287 -31.5253312 66.2803179 C-31.52767578 62.14063314 -31.53655832 58.00121285 -31.56179237 53.86159897 C-31.58517517 49.96270139 -31.58926575 46.06424052 -31.57903099 42.16529083 C-31.57853795 40.74074725 -31.5847895 39.31618141 -31.59858704 37.89170456 C-31.70918986 25.78760234 -29.77274338 17.04279088 -21.33096313 8.12763977 C-14.89210332 2.39037804 -8.52079688 0.03342291 0 0 Z " fill="#00BA7F" transform="translate(31.108306884765625,-0.1471710205078125)"/>
<path d="M0 0 C1.20214142 -0.0087616 2.40428284 -0.01752319 3.64285278 -0.02655029 C6.93238503 -0.04476679 10.22090876 -0.04052568 13.51042557 -0.02465487 C16.95675994 -0.01197401 20.40302814 -0.02374201 23.84936523 -0.03158569 C29.63635307 -0.04067599 35.42302161 -0.028711 41.20996094 -0.00488281 C47.89545626 0.02232778 54.58018915 0.01351314 61.26566601 -0.01401484 C67.01108661 -0.03672295 72.75627802 -0.03989784 78.50172901 -0.02682149 C81.93087571 -0.01903613 85.35966431 -0.01795957 88.78878784 -0.03450394 C92.61232211 -0.04718749 96.43438776 -0.02786636 100.2578125 0 C101.39147247 -0.01012115 102.52513245 -0.02024231 103.69314575 -0.03067017 C108.47086997 0.03391425 111.2734035 0.08700678 115.33239746 2.74380493 C117.55952622 6.34285681 117.75106515 8.52175754 117.74414062 12.74462891 C117.74968964 13.43958466 117.75523865 14.13454041 117.76095581 14.85055542 C117.7727239 17.13757257 117.74850966 19.42259545 117.72265625 21.70947266 C117.72094427 23.3046052 117.72101172 24.89974056 117.72277832 26.49487305 C117.72112671 29.8339336 117.70245903 33.17232145 117.67089844 36.51123047 C117.63122082 40.78522201 117.62685407 45.05833298 117.63436127 49.33247375 C117.63743494 52.62512234 117.62529642 55.917574 117.60823059 59.21017456 C117.60121334 60.78578455 117.59807451 62.36141685 117.59892273 63.93704224 C117.59711925 66.14154172 117.57569253 68.34499801 117.54882812 70.54931641 C117.54040894 71.80220459 117.53198975 73.05509277 117.52331543 74.34594727 C117.09829732 77.90315544 116.27244121 79.80605643 114.12890625 82.64697266 C111.6459627 83.88844443 109.98622968 83.77830601 107.20779419 83.78741455 C105.6473085 83.79597977 105.6473085 83.79597977 104.05529785 83.80471802 C102.90928101 83.80583588 101.76326416 83.80695374 100.58251953 83.80810547 C98.77755508 83.81555283 98.77755508 83.81555283 96.93612671 83.82315063 C93.63028065 83.83527181 90.32449794 83.84272065 87.01863718 83.84716129 C84.95386767 83.85009106 82.88910372 83.85419568 80.82433701 83.85866547 C74.3658463 83.87234177 67.90736829 83.88200782 61.4488641 83.88586736 C53.99027757 83.89034886 46.53187422 83.9079003 39.0733434 83.93686795 C33.3102271 83.95847493 27.54716238 83.9685711 21.784006 83.96990848 C18.34092921 83.97095721 14.89802458 83.97687915 11.45499039 83.99472809 C7.61462728 84.01424928 3.77449363 84.00992372 -0.06591797 84.00341797 C-1.20788635 84.01263275 -2.34985474 84.02184753 -3.52642822 84.03134155 C-4.57239166 84.0257724 -5.6183551 84.02020325 -6.6960144 84.01446533 C-8.05821515 84.01666517 -8.05821515 84.01666517 -9.4479351 84.01890945 C-12.3844552 83.5681755 -13.73735304 82.68927372 -15.87109375 80.64697266 C-17.02664279 77.18032554 -17.02654702 74.43461098 -17.06396484 70.77636719 C-17.07214233 70.08170349 -17.08031982 69.38703979 -17.08874512 68.67132568 C-17.11354328 66.3741542 -17.13009904 64.07704419 -17.14453125 61.77978516 C-17.14985493 60.99443264 -17.1551786 60.20908012 -17.1606636 59.39992905 C-17.18736857 55.24449388 -17.20675351 51.08908852 -17.22119141 46.93359375 C-17.23454134 43.49582372 -17.26241601 40.05864577 -17.30322266 36.62109375 C-17.35252236 32.46785921 -17.37730856 28.31516246 -17.38441849 24.1616478 C-17.39113212 22.58038333 -17.40635734 20.99913091 -17.4303093 19.4180336 C-17.46194814 17.20350859 -17.46200133 14.99105907 -17.45458984 12.77636719 C-17.4626767 11.51744659 -17.47076355 10.258526 -17.47909546 8.9614563 C-16.87109375 5.64697266 -16.87109375 5.64697266 -15.0765686 2.74182129 C-10.20013679 -0.44503463 -5.70958172 -0.05097433 0 0 Z " fill="#00BA80" transform="translate(49.87109375,66.35302734375)"/>
<path d="M0 0 C1.20214142 -0.0087616 2.40428284 -0.01752319 3.64285278 -0.02655029 C6.93238503 -0.04476679 10.22090876 -0.04052568 13.51042557 -0.02465487 C16.95675994 -0.01197401 20.40302814 -0.02374201 23.84936523 -0.03158569 C29.63635307 -0.04067599 35.42302161 -0.028711 41.20996094 -0.00488281 C47.89545626 0.02232778 54.58018915 0.01351314 61.26566601 -0.01401484 C67.01108661 -0.03672295 72.75627802 -0.03989784 78.50172901 -0.02682149 C81.93087571 -0.01903613 85.35966431 -0.01795957 88.78878784 -0.03450394 C92.61232211 -0.04718749 96.43438776 -0.02786636 100.2578125 0 C101.39147247 -0.01012115 102.52513245 -0.02024231 103.69314575 -0.03067017 C108.47086997 0.03391425 111.2734035 0.08700678 115.33239746 2.74380493 C117.55952622 6.34285681 117.75106515 8.52175754 117.74414062 12.74462891 C117.74968964 13.43958466 117.75523865 14.13454041 117.76095581 14.85055542 C117.7727239 17.13757257 117.74850966 19.42259545 117.72265625 21.70947266 C117.72094427 23.3046052 117.72101172 24.89974056 117.72277832 26.49487305 C117.72112671 29.8339336 117.70245903 33.17232145 117.67089844 36.51123047 C117.63122082 40.78522201 117.62685407 45.05833298 117.63436127 49.33247375 C117.63743494 52.62512234 117.62529642 55.917574 117.60823059 59.21017456 C117.60121334 60.78578455 117.59807451 62.36141685 117.59892273 63.93704224 C117.59711925 66.14154172 117.57569253 68.34499801 117.54882812 70.54931641 C117.54040894 71.80220459 117.53198975 73.05509277 117.52331543 74.34594727 C117.09829732 77.90315544 116.27244121 79.80605643 114.12890625 82.64697266 C111.6459627 83.88844443 109.98622968 83.77830601 107.20779419 83.78741455 C105.6473085 83.79597977 105.6473085 83.79597977 104.05529785 83.80471802 C102.90928101 83.80583588 101.76326416 83.80695374 100.58251953 83.80810547 C98.77755508 83.81555283 98.77755508 83.81555283 96.93612671 83.82315063 C93.63028065 83.83527181 90.32449794 83.84272065 87.01863718 83.84716129 C84.95386767 83.85009106 82.88910372 83.85419568 80.82433701 83.85866547 C74.3658463 83.87234177 67.90736829 83.88200782 61.4488641 83.88586736 C53.99027757 83.89034886 46.53187422 83.9079003 39.0733434 83.93686795 C33.3102271 83.95847493 27.54716238 83.9685711 21.784006 83.96990848 C18.34092921 83.97095721 14.89802458 83.97687915 11.45499039 83.99472809 C7.61462728 84.01424928 3.77449363 84.00992372 -0.06591797 84.00341797 C-1.20788635 84.01263275 -2.34985474 84.02184753 -3.52642822 84.03134155 C-4.57239166 84.0257724 -5.6183551 84.02020325 -6.6960144 84.01446533 C-8.05821515 84.01666517 -8.05821515 84.01666517 -9.4479351 84.01890945 C-12.3844552 83.5681755 -13.73735304 82.68927372 -15.87109375 80.64697266 C-17.02664279 77.18032554 -17.02654702 74.43461098 -17.06396484 70.77636719 C-17.07214233 70.08170349 -17.08031982 69.38703979 -17.08874512 68.67132568 C-17.11354328 66.3741542 -17.13009904 64.07704419 -17.14453125 61.77978516 C-17.14985493 60.99443264 -17.1551786 60.20908012 -17.1606636 59.39992905 C-17.18736857 55.24449388 -17.20675351 51.08908852 -17.22119141 46.93359375 C-17.23454134 43.49582372 -17.26241601 40.05864577 -17.30322266 36.62109375 C-17.35252236 32.46785921 -17.37730856 28.31516246 -17.38441849 24.1616478 C-17.39113212 22.58038333 -17.40635734 20.99913091 -17.4303093 19.4180336 C-17.46194814 17.20350859 -17.46200133 14.99105907 -17.45458984 12.77636719 C-17.4626767 11.51744659 -17.47076355 10.258526 -17.47909546 8.9614563 C-16.87109375 5.64697266 -16.87109375 5.64697266 -15.0765686 2.74182129 C-10.20013679 -0.44503463 -5.70958172 -0.05097433 0 0 Z M8.12890625 8.64697266 C7.13890625 11.61697266 6.14890625 14.58697266 5.12890625 17.64697266 C0.68344353 22.40258394 -2.40733162 23.22306186 -8.87109375 25.64697266 C-8.87109375 36.53697266 -8.87109375 47.42697266 -8.87109375 58.64697266 C-5.90109375 59.63697266 -2.93109375 60.62697266 0.12890625 61.64697266 C5.72449079 65.78283949 5.68516272 68.31574207 8.12890625 75.64697266 C35.84890625 75.64697266 63.56890625 75.64697266 92.12890625 75.64697266 C93.11890625 72.67697266 94.10890625 69.70697266 95.12890625 66.64697266 C99.26477308 61.05138812 101.79767566 61.09071618 109.12890625 58.64697266 C109.12890625 47.75697266 109.12890625 36.86697266 109.12890625 25.64697266 C104.17890625 23.66697266 104.17890625 23.66697266 99.12890625 21.64697266 C94.49899552 17.30643135 93.96484221 15.07274852 92.12890625 8.64697266 C64.40890625 8.64697266 36.68890625 8.64697266 8.12890625 8.64697266 Z " fill="#FDFEFE" transform="translate(49.87109375,66.35302734375)"/>
<path d="M0 0 C0.90707199 -0.00990463 1.81414398 -0.01980927 2.748703 -0.03001404 C3.74151276 -0.02551239 4.73432251 -0.02101074 5.75721741 -0.01637268 C6.80461594 -0.02323593 7.85201447 -0.03009918 8.93115234 -0.03717041 C12.40203818 -0.05550903 15.87247504 -0.05159071 19.34339905 -0.0459137 C21.75091703 -0.05047215 24.15843371 -0.0557767 26.56594849 -0.0617981 C31.61576111 -0.07074314 36.66541572 -0.0682902 41.71522522 -0.05836487 C48.19322637 -0.04687454 54.6706825 -0.0670812 61.14861202 -0.09628201 C66.12167844 -0.11460997 71.09461345 -0.11435829 76.06770515 -0.10864449 C78.45636828 -0.10849085 80.84504007 -0.11456992 83.23367119 -0.12693596 C86.57129684 -0.14177913 89.90790529 -0.13121708 93.24549866 -0.11402893 C94.23628418 -0.1236969 95.2270697 -0.13336487 96.24787903 -0.14332581 C102.88409455 -0.0716014 102.88409455 -0.0716014 106.21109009 2.16903687 C107.5660553 4.38768005 107.5660553 4.38768005 107.5660553 8.38768005 C69.2860553 8.38768005 31.0060553 8.38768005 -8.4339447 8.38768005 C-7.22662002 2.35105666 -6.27619606 0.01934193 0 0 Z " fill="#FEFEFE" transform="translate(50.43394470214844,49.61231994628906)"/>
<path d="M0 0 C4.32392389 2.25555337 6.80619854 4.98775568 8.9296875 9.31640625 C10.53832053 15.3959297 10.13139122 19.76678647 6.9296875 25.31640625 C3.35760307 29.54650623 0.40129519 31.89064304 -5.140625 32.5703125 C-10.99956188 32.87815495 -14.36152436 31.82491506 -19.0703125 28.31640625 C-22.81657763 24.17579742 -23.88983288 20.29470307 -24.234375 14.84765625 C-23.87756832 9.34263886 -21.42739134 5.60728612 -17.5078125 1.87890625 C-12.33972733 -1.43396886 -5.83599746 -1.92698029 0 0 Z " fill="#FAFEFD" transform="translate(107.0703125,92.68359375)"/>
</svg>
