<?xml version="1.0" encoding="UTF-8"?>
<svg version="1.1" xmlns="http://www.w3.org/2000/svg" width="200" height="200">
<path d="M0 0 C1.87975525 -0.01073296 1.87975525 -0.01073296 3.79748535 -0.02168274 C5.18386816 -0.02452283 6.57025124 -0.02723458 7.95663452 -0.02983093 C9.4188147 -0.03609854 10.8809933 -0.0427456 12.34317017 -0.04974365 C17.14318743 -0.0707551 21.9432049 -0.08114486 26.74325562 -0.09111023 C28.39854321 -0.09515919 30.05383063 -0.09927616 31.70911789 -0.10346031 C39.48856887 -0.12250737 47.26801041 -0.13673814 55.04748023 -0.14507228 C64.01267201 -0.1548364 72.97761636 -0.18113629 81.94272101 -0.22157317 C88.88133149 -0.25178997 95.81987127 -0.26654651 102.75854623 -0.26985329 C106.898231 -0.27219787 111.03765128 -0.28108041 115.17726517 -0.30631447 C119.07616274 -0.32969727 122.97462362 -0.33378785 126.8735733 -0.32355309 C128.29811689 -0.32306005 129.72268272 -0.32931159 131.14715958 -0.34310913 C143.25126179 -0.45371195 151.99607326 1.48273452 160.91122437 9.92451477 C166.6484861 16.36337458 169.00544122 22.73468102 169.03886414 31.25547791 C169.04959709 33.13523315 169.04959709 33.13523315 169.06054688 35.05296326 C169.06338697 36.43934606 169.06609872 37.82572914 169.06869507 39.21211243 C169.07496267 40.67429261 169.08160974 42.1364712 169.08860779 43.59864807 C169.10961923 48.39866534 169.120009 53.19868281 169.12997437 57.99873352 C169.13402333 59.65402111 169.13814029 61.30930854 169.14232445 62.96459579 C169.1613715 70.74404678 169.17560228 78.52348832 169.18393642 86.30295813 C169.19370054 95.26814992 169.22000043 104.23309427 169.26043731 113.19819891 C169.2906541 120.13680939 169.30541064 127.07534917 169.30871743 134.01402414 C169.31106201 138.1537089 169.31994455 142.29312919 169.3451786 146.43274307 C169.3685614 150.33164065 169.37265198 154.23010153 169.36241722 158.12905121 C169.36192418 159.5535948 169.36817573 160.97816063 169.38197327 162.40263748 C169.49257609 174.5067397 167.55612961 183.25155117 159.11434937 192.16670227 C152.67548955 197.903964 146.30418311 200.26091913 137.78338623 200.29434204 C135.90363098 200.305075 135.90363098 200.305075 133.98590088 200.31602478 C132.59951807 200.31886487 131.21313499 200.32157662 129.82675171 200.32417297 C128.36457153 200.33044058 126.90239293 200.33708764 125.44021606 200.34408569 C120.6401988 200.36509714 115.84018133 200.3754869 111.04013062 200.38545227 C109.38484302 200.38950123 107.7295556 200.3936182 106.07426834 200.39780235 C98.29481736 200.41684941 90.51537582 200.43108018 82.735906 200.43941432 C73.77071422 200.44917844 64.80576987 200.47547833 55.84066522 200.51591522 C48.90205474 200.54613201 41.96351496 200.56088855 35.02484 200.56419533 C30.88515523 200.56653991 26.74573495 200.57542245 22.60612106 200.60065651 C18.70722349 200.62403931 14.80876261 200.62812989 10.90981293 200.61789513 C9.48526934 200.61740209 8.06070351 200.62365363 6.63622665 200.63745117 C-5.46787556 200.748054 -14.21268703 198.81160752 -23.12783813 190.36982727 C-28.86509987 183.93096746 -31.22205499 177.55966102 -31.25547791 169.03886414 C-31.26263321 167.78569397 -31.26978851 166.5325238 -31.27716064 165.24137878 C-31.28000074 163.85499598 -31.28271249 162.4686129 -31.28530884 161.08222961 C-31.29157644 159.62004943 -31.29822351 158.15787084 -31.30522156 156.69569397 C-31.326233 151.8956767 -31.33662277 147.09565924 -31.34658813 142.29560852 C-31.3506371 140.64032093 -31.35475406 138.9850335 -31.35893822 137.32974625 C-31.37798527 129.55029526 -31.39221605 121.77085372 -31.40055019 113.99138391 C-31.41031431 105.02619212 -31.4366142 96.06124777 -31.47705108 87.09614313 C-31.50726787 80.15753265 -31.52202441 73.21899287 -31.5253312 66.2803179 C-31.52767578 62.14063314 -31.53655832 58.00121285 -31.56179237 53.86159897 C-31.58517517 49.96270139 -31.58926575 46.06424052 -31.57903099 42.16529083 C-31.57853795 40.74074725 -31.5847895 39.31618141 -31.59858704 37.89170456 C-31.70918986 25.78760234 -29.77274338 17.04279088 -21.33096313 8.12763977 C-14.89210332 2.39037804 -8.52079688 0.03342291 0 0 Z " fill="#7E23DE" transform="translate(31.108306884765625,-0.1471710205078125)"/>
<path d="M0 0 C0.909776 -0.0071553 1.819552 -0.01431061 2.75689697 -0.02168274 C3.75793961 -0.02437164 4.75898224 -0.02706055 5.7903595 -0.02983093 C6.84254669 -0.03640213 7.89473389 -0.04297333 8.97880554 -0.04974365 C12.47303839 -0.06951013 15.96722816 -0.0811475 19.46150208 -0.09111023 C21.24946921 -0.09722352 21.24946921 -0.09722352 23.0735569 -0.10346031 C29.38394117 -0.12433658 35.6943036 -0.13863086 42.00471497 -0.147995 C48.52387491 -0.15905508 55.04269311 -0.19344637 61.56173229 -0.23316669 C66.5726383 -0.2593129 71.5834627 -0.26768515 76.59443092 -0.27127647 C78.99737668 -0.27614854 81.40031865 -0.28778006 83.80319786 -0.30631447 C87.16898513 -0.33065965 90.53388615 -0.3297487 93.8997345 -0.32279968 C94.89065598 -0.33560974 95.88157745 -0.3484198 96.90252686 -0.36161804 C103.90426858 -0.30899317 108.0915017 0.9646574 113.42376709 5.70881653 C118.15516715 12.57665801 117.37227758 20.63006971 117.29743958 28.61592102 C117.29826954 30.22200176 117.30073372 31.82808239 117.30474854 33.43415833 C117.30759724 36.78976708 117.29299733 40.14470494 117.26545715 43.50019836 C117.23137529 47.78403364 117.23740107 52.06667037 117.25611973 56.35056305 C117.26672915 59.66393379 117.25771637 62.97702953 117.24273491 66.29037476 C117.23758148 67.86909161 117.23800013 69.44783752 117.24427986 71.02655029 C117.2823996 86.3655351 117.2823996 86.3655351 112.66853333 93.14717102 C108.70491518 96.91744194 105.62758718 98.26515611 100.21008301 98.29434204 C99.29748718 98.30149734 98.38489136 98.30865265 97.44464111 98.31602478 C96.44562271 98.31871368 95.44660431 98.32140259 94.41731262 98.32417297 C93.36337311 98.33074417 92.30943359 98.33731537 91.22355652 98.34408569 C87.72995434 98.36382365 84.23639514 98.37548172 80.74275208 98.38545227 C78.95428832 98.39156556 78.95428832 98.39156556 77.12969398 98.39780235 C70.82045794 98.41866402 64.51124367 98.43296602 58.20198059 98.44233704 C51.6816303 98.45340879 45.16162059 98.48781769 38.6413908 98.52750874 C33.63052734 98.55363585 28.61974555 98.56202537 23.60881996 98.56561852 C21.2050477 98.57049361 18.80127931 98.58213369 16.39757347 98.60065651 C13.03408562 98.62496667 9.67148617 98.62409748 6.30793762 98.61714172 C5.31499191 98.62995178 4.3220462 98.64276184 3.29901123 98.65596008 C-2.4310133 98.61276154 -5.8160468 98.03454848 -10.33146667 94.14717102 C-14.63128969 89.26629085 -15.48382125 86.40056487 -15.50846863 80.03877258 C-15.51503983 79.30684692 -15.52161102 78.57492126 -15.52838135 77.82081604 C-15.54812731 75.39314169 -15.55978081 72.96552929 -15.56974792 70.53779602 C-15.57382345 69.70864433 -15.57789898 68.87949265 -15.58209801 68.02521515 C-15.60296597 63.63520557 -15.61726357 59.2452273 -15.62663269 54.85517883 C-15.63768854 50.32451168 -15.67207652 45.79433683 -15.71180439 41.26384354 C-15.73797621 37.77734985 -15.74632509 34.29097324 -15.74991417 30.80438995 C-15.75478002 29.1346632 -15.76639404 27.46494168 -15.78495216 25.79531097 C-15.80935278 23.45419595 -15.80837733 21.11435137 -15.80143738 18.77314758 C-15.81424744 18.0872052 -15.8270575 17.40126282 -15.84025574 16.6945343 C-15.78690304 11.73996875 -14.39685384 8.97825311 -11.33146667 5.14717102 C-7.45545381 1.73258826 -5.14120172 0.02771057 0 0 Z " fill="#FCF9FE" transform="translate(49.33146667480469,50.85282897949219)"/>
<path d="M0 0 C37.95 0 75.9 0 115 0 C115 14.52 115 29.04 115 44 C109.37474197 49.62525803 109.37474197 49.62525803 105.44616699 49.64164734 C104.12146645 49.66496376 104.12146645 49.66496376 102.77000427 49.68875122 C101.81400833 49.68020111 100.85801239 49.671651 99.87304688 49.6628418 C98.34781151 49.67839363 98.34781151 49.67839363 96.79176331 49.69425964 C93.4336806 49.72134389 90.07690248 49.71166492 86.71875 49.69921875 C84.38374466 49.70512657 82.04874236 49.71237283 79.71374512 49.72090149 C74.82120985 49.73278456 69.92912943 49.72606853 65.03662109 49.70678711 C58.76475014 49.68389521 52.49423342 49.710683 46.22249603 49.75184917 C41.40117166 49.77741455 36.58017188 49.77485068 31.75880432 49.76395607 C29.44632233 49.76246831 27.1338156 49.77017162 24.82139587 49.78720665 C21.58907725 49.8071533 18.35916067 49.78881298 15.12695312 49.76049805 C13.69295921 49.78107269 13.69295921 49.78107269 12.22999573 49.80206299 C11.34686203 49.7865892 10.46372833 49.77111542 9.55383301 49.75517273 C8.79062996 49.75420939 8.02742691 49.75324606 7.2410965 49.75225353 C5 49 5 49 0 43 C0 28.81 0 14.62 0 0 Z " fill="#7E23DE" transform="translate(42,92)"/>
<path d="M0 0 C1.01682358 -0.00890762 2.03364716 -0.01781525 3.08128357 -0.0269928 C6.43960901 -0.04828838 9.79601837 -0.02596032 13.15429688 -0.0012207 C15.4893005 -0.00272295 17.82430361 -0.00615255 20.15930176 -0.01142883 C25.05193169 -0.01576173 29.94390285 0.00108978 34.83642578 0.03320312 C41.10819955 0.07298354 47.3787379 0.06368535 53.65055084 0.03896809 C58.47188444 0.0247866 63.29292939 0.03487068 68.11424255 0.0524807 C70.42670502 0.05833148 72.73919701 0.05702674 75.051651 0.04845619 C78.28379982 0.04046662 81.51413749 0.06470209 84.74609375 0.09765625 C86.18008766 0.08483109 86.18008766 0.08483109 87.64305115 0.07174683 C91.87542545 0.14624202 94.31045635 0.42758267 98.00598145 2.61442566 C99.87304688 5.76049805 99.87304688 5.76049805 99.87304688 16.76049805 C61.92304687 16.76049805 23.97304687 16.76049805 -15.12695312 16.76049805 C-15.12695312 6.76049805 -15.12695312 6.76049805 -13.2598877 3.18302917 C-8.83887356 -0.23550515 -5.452548 -0.07823202 0 0 Z " fill="#7E23DE" transform="translate(57.126953125,58.239501953125)"/>
<path d="M0 0 C1.69576172 -0.03867188 1.69576172 -0.03867188 3.42578125 -0.078125 C7.00020151 0.2814574 8.83560326 1.10977877 11.6875 3.25 C13.18893464 6.25286929 12.9125678 9.3339496 12.9375 12.625 C12.958125 13.29789063 12.97875 13.97078125 13 14.6640625 C13.02443343 17.76710828 12.86756989 19.9226965 11.359375 22.6640625 C8.14371914 25.71442764 4.53589141 25.47068714 0.3125 25.5625 C-0.80898438 25.59988281 -1.93046875 25.63726562 -3.0859375 25.67578125 C-6.96635586 25.16371636 -8.54812425 23.95908823 -11.3125 21.25 C-12.71115903 18.45268195 -12.55787267 16.05715441 -12.625 12.9375 C-12.66238281 11.80699219 -12.69976562 10.67648438 -12.73828125 9.51171875 C-12.22855818 5.60695943 -11.04040817 4.02851871 -8.3125 1.25 C-5.51142988 -0.15053506 -3.12358319 0.0424496 0 0 Z " fill="#FBF9FE" transform="translate(62.3125,107.75)"/>
</svg>
