<?xml version="1.0" encoding="UTF-8"?>
<svg version="1.1" xmlns="http://www.w3.org/2000/svg" width="200" height="200">
<path d="M0 0 C1.87975525 -0.01073296 1.87975525 -0.01073296 3.79748535 -0.02168274 C5.18386816 -0.02452283 6.57025124 -0.02723458 7.95663452 -0.02983093 C9.4188147 -0.03609854 10.8809933 -0.0427456 12.34317017 -0.04974365 C17.14318743 -0.0707551 21.9432049 -0.08114486 26.74325562 -0.09111023 C28.39854321 -0.09515919 30.05383063 -0.09927616 31.70911789 -0.10346031 C39.48856887 -0.12250737 47.26801041 -0.13673814 55.04748023 -0.14507228 C64.01267201 -0.1548364 72.97761636 -0.18113629 81.94272101 -0.22157317 C88.88133149 -0.25178997 95.81987127 -0.26654651 102.75854623 -0.26985329 C106.898231 -0.27219787 111.03765128 -0.28108041 115.17726517 -0.30631447 C119.07616274 -0.32969727 122.97462362 -0.33378785 126.8735733 -0.32355309 C128.29811689 -0.32306005 129.72268272 -0.32931159 131.14715958 -0.34310913 C143.25126179 -0.45371195 151.99607326 1.48273452 160.91122437 9.92451477 C166.6484861 16.36337458 169.00544122 22.73468102 169.03886414 31.25547791 C169.04959709 33.13523315 169.04959709 33.13523315 169.06054688 35.05296326 C169.06338697 36.43934606 169.06609872 37.82572914 169.06869507 39.21211243 C169.07496267 40.67429261 169.08160974 42.1364712 169.08860779 43.59864807 C169.10961923 48.39866534 169.120009 53.19868281 169.12997437 57.99873352 C169.13402333 59.65402111 169.13814029 61.30930854 169.14232445 62.96459579 C169.1613715 70.74404678 169.17560228 78.52348832 169.18393642 86.30295813 C169.19370054 95.26814992 169.22000043 104.23309427 169.26043731 113.19819891 C169.2906541 120.13680939 169.30541064 127.07534917 169.30871743 134.01402414 C169.31106201 138.1537089 169.31994455 142.29312919 169.3451786 146.43274307 C169.3685614 150.33164065 169.37265198 154.23010153 169.36241722 158.12905121 C169.36192418 159.5535948 169.36817573 160.97816063 169.38197327 162.40263748 C169.49257609 174.5067397 167.55612961 183.25155117 159.11434937 192.16670227 C152.67548955 197.903964 146.30418311 200.26091913 137.78338623 200.29434204 C135.90363098 200.305075 135.90363098 200.305075 133.98590088 200.31602478 C132.59951807 200.31886487 131.21313499 200.32157662 129.82675171 200.32417297 C128.36457153 200.33044058 126.90239293 200.33708764 125.44021606 200.34408569 C120.6401988 200.36509714 115.84018133 200.3754869 111.04013062 200.38545227 C109.38484302 200.38950123 107.7295556 200.3936182 106.07426834 200.39780235 C98.29481736 200.41684941 90.51537582 200.43108018 82.735906 200.43941432 C73.77071422 200.44917844 64.80576987 200.47547833 55.84066522 200.51591522 C48.90205474 200.54613201 41.96351496 200.56088855 35.02484 200.56419533 C30.88515523 200.56653991 26.74573495 200.57542245 22.60612106 200.60065651 C18.70722349 200.62403931 14.80876261 200.62812989 10.90981293 200.61789513 C9.48526934 200.61740209 8.06070351 200.62365363 6.63622665 200.63745117 C-5.46787556 200.748054 -14.21268703 198.81160752 -23.12783813 190.36982727 C-28.86509987 183.93096746 -31.22205499 177.55966102 -31.25547791 169.03886414 C-31.26263321 167.78569397 -31.26978851 166.5325238 -31.27716064 165.24137878 C-31.28000074 163.85499598 -31.28271249 162.4686129 -31.28530884 161.08222961 C-31.29157644 159.62004943 -31.29822351 158.15787084 -31.30522156 156.69569397 C-31.326233 151.8956767 -31.33662277 147.09565924 -31.34658813 142.29560852 C-31.3506371 140.64032093 -31.35475406 138.9850335 -31.35893822 137.32974625 C-31.37798527 129.55029526 -31.39221605 121.77085372 -31.40055019 113.99138391 C-31.41031431 105.02619212 -31.4366142 96.06124777 -31.47705108 87.09614313 C-31.50726787 80.15753265 -31.52202441 73.21899287 -31.5253312 66.2803179 C-31.52767578 62.14063314 -31.53655832 58.00121285 -31.56179237 53.86159897 C-31.58517517 49.96270139 -31.58926575 46.06424052 -31.57903099 42.16529083 C-31.57853795 40.74074725 -31.5847895 39.31618141 -31.59858704 37.89170456 C-31.70918986 25.78760234 -29.77274338 17.04279088 -21.33096313 8.12763977 C-14.89210332 2.39037804 -8.52079688 0.03342291 0 0 Z " fill="#00BA7F" transform="translate(31.108306884765625,-0.1471710205078125)"/>
<path d="M0 0 C0.86059525 -0.00571014 1.72119049 -0.01142029 2.60786438 -0.01730347 C4.01212929 -0.01898026 4.01212929 -0.01898026 5.44476318 -0.02069092 C6.43711472 -0.02565582 7.42946625 -0.03062073 8.45188904 -0.03573608 C11.73565362 -0.05034362 15.01936988 -0.05715769 18.30316162 -0.06268311 C20.58756512 -0.06843608 22.8719686 -0.0741938 25.15637207 -0.07995605 C29.94797999 -0.09046229 34.73957115 -0.09630731 39.53118896 -0.09979248 C45.66226907 -0.10527382 51.79312672 -0.12929595 57.92413712 -0.15776443 C62.64427328 -0.17641591 67.36435616 -0.18159778 72.08452606 -0.18312836 C74.34428879 -0.18615015 76.60405068 -0.19416267 78.86377716 -0.20731354 C82.03026602 -0.22442477 85.19621521 -0.2224811 88.36273193 -0.21600342 C89.75485146 -0.22982559 89.75485146 -0.22982559 91.1750946 -0.243927 C98.28132301 -0.19853553 103.95132326 0.84180448 109.53753662 5.57794189 C113.35058188 10.17602588 113.95848035 13.57460772 113.93719482 19.47589111 C113.94230576 20.20810883 113.94741669 20.94032654 113.9526825 21.69473267 C113.96656499 24.11161509 113.96562257 26.52821187 113.96331787 28.94512939 C113.96720594 30.62897853 113.97154084 32.31282669 113.9763031 33.99667358 C113.98376271 37.52558572 113.98347621 41.05439782 113.97821045 44.58331299 C113.97242035 49.09816615 113.98933678 53.61260846 114.01255512 58.12739372 C114.02731244 61.60532004 114.02816138 65.08314792 114.02504539 68.56110001 C114.02555774 70.22521909 114.03077922 71.88934382 114.04085732 73.55343246 C114.05324152 75.88462474 114.04641843 78.21502334 114.03485107 80.54620361 C114.04249481 81.22900391 114.05013855 81.9118042 114.05801392 82.61529541 C114.00820339 87.17390591 113.02891439 90.25854877 110.66253662 94.14044189 C104.37605719 100.09605398 98.67492767 100.44116778 90.39959717 100.44683838 C89.36808533 100.4551619 88.33657349 100.46348541 87.27380371 100.47206116 C83.86558247 100.49614596 80.45755268 100.50493156 77.04925537 100.51153564 C74.67659956 100.52050317 72.30394432 100.52962504 69.93128967 100.53889465 C64.95733262 100.55538312 59.98344288 100.56308452 55.00946045 100.565979 C48.64394555 100.57136232 42.27906537 100.60904185 35.91372967 100.65472317 C31.01257532 100.68450291 26.11157364 100.69170278 21.21033669 100.69270515 C18.86403306 100.69690564 16.5177289 100.70933291 14.17151451 100.7302227 C10.88509151 100.75715433 7.60013761 100.75230525 4.31365967 100.73980713 C3.34974808 100.75464142 2.38583649 100.76947571 1.39271545 100.78475952 C-5.08151195 100.71484136 -9.30195418 99.26022261 -14.33746338 95.14044189 C-18.35642711 90.73254619 -18.4736433 86.76616218 -18.53033447 80.95025635 C-18.53851196 80.22139725 -18.54668945 79.49253815 -18.55511475 78.74159241 C-18.57992923 76.32897758 -18.59647686 73.91642155 -18.61090088 71.50372314 C-18.61622456 70.67798483 -18.62154823 69.85224651 -18.62703323 69.00148582 C-18.65375096 64.62862451 -18.67312802 60.25579158 -18.68756104 55.88287354 C-18.70088582 52.27161244 -18.72871275 48.66091833 -18.76959229 45.04986572 C-18.8190278 40.68265429 -18.84369557 36.31595606 -18.85078812 31.94847679 C-18.85748245 30.2887531 -18.87265707 28.62904004 -18.89667892 26.9694767 C-19.11038162 11.30901158 -19.11038162 11.30901158 -14.66305542 5.47142029 C-10.42457548 1.21571789 -5.8327048 0.02327405 0 0 Z " fill="#F9FDFD" transform="translate(52.33746337890625,49.85955810546875)"/>
<path d="M0 0 C0.89154785 -0.01409912 1.7830957 -0.02819824 2.70166016 -0.04272461 C4.14968018 -0.02754288 4.14968018 -0.02754288 5.62695312 -0.01205444 C6.65353027 -0.02081604 7.68010742 -0.02957764 8.73779297 -0.03860474 C12.12836068 -0.06059634 15.51762234 -0.0460458 18.90820312 -0.02914429 C21.26562755 -0.03251246 23.62305027 -0.03736509 25.98046875 -0.04364014 C30.92009014 -0.05101119 35.85925932 -0.04029778 40.79882812 -0.01693726 C47.13110345 0.01154984 53.46231922 -0.00485276 59.79455566 -0.03479958 C64.66219061 -0.05286577 69.52957428 -0.04711745 74.3972168 -0.03416061 C76.73201625 -0.03082477 79.0668385 -0.0349199 81.40161133 -0.04655838 C84.66484011 -0.05925513 87.92635224 -0.03990425 91.18945312 -0.01205444 C92.1547998 -0.0221756 93.12014648 -0.03229675 94.11474609 -0.04272461 C95.00629395 -0.02862549 95.8978418 -0.01452637 96.81640625 0 C97.58698364 0.00188513 98.35756104 0.00377026 99.15148926 0.00571251 C101.40820312 0.63491821 101.40820312 0.63491821 106.40820312 5.63491821 C106.40820312 20.48491821 106.40820312 35.33491821 106.40820312 50.63491821 C68.12820312 50.63491821 29.84820312 50.63491821 -9.59179688 50.63491821 C-9.59179688 0.02346522 -9.59179688 0.02346522 0 0 Z " fill="#02BA80" transform="translate(51.591796875,58.365081787109375)"/>
<path d="M0 0 C38.28 0 76.56 0 116 0 C116 11 116 11 114.1875 14.125 C111.11768806 16.75626738 108.66614189 17.12493759 104.76260376 17.14717102 C103.8990477 17.15432632 103.03549164 17.16148163 102.14576721 17.16885376 C101.2012822 17.17154266 100.25679718 17.17423157 99.28369141 17.17700195 C98.28666702 17.18357315 97.28964264 17.19014435 96.2624054 17.19691467 C92.95879036 17.21664674 89.65522073 17.22830877 86.3515625 17.23828125 C85.22420055 17.24235678 84.09683861 17.2464323 82.93531418 17.25063133 C76.97087537 17.27148951 71.00645958 17.28579357 65.04199219 17.29516602 C58.87577165 17.306243 52.70991073 17.34065879 46.54381752 17.38033772 C41.80664386 17.40645245 37.06955667 17.41485318 32.33231735 17.41844749 C30.05889832 17.42332504 27.78548344 17.43497205 25.51213455 17.45348549 C22.33282988 17.47777183 19.15446623 17.47693111 15.97509766 17.4699707 C15.0346611 17.48278076 14.09422455 17.49559082 13.12528992 17.50878906 C8.88317793 17.47489974 6.6120467 17.38078628 2.9390564 15.09562683 C-1.78771481 9.98718925 0 9.06048933 0 0 Z " fill="#00BB82" transform="translate(42,125)"/>
<path d="M0 0 C0.86753906 -0.01611328 1.73507813 -0.03222656 2.62890625 -0.04882812 C3.46292969 -0.04947266 4.29695313 -0.05011719 5.15625 -0.05078125 C5.91744141 -0.05376221 6.67863281 -0.05674316 7.46289062 -0.05981445 C10.04287381 0.41171891 10.9231912 1.25011764 12.5 3.3125 C12.8984375 5.90625 12.8984375 5.90625 12.875 8.8125 C12.88273437 9.7715625 12.89046875 10.730625 12.8984375 11.71875 C12.43021027 14.76681743 11.90183724 15.45830427 9.5 17.3125 C7.35522461 17.68481445 7.35522461 17.68481445 4.90234375 17.67578125 C4.01869141 17.67513672 3.13503906 17.67449219 2.22460938 17.67382812 C1.30486328 17.65771484 0.38511719 17.64160156 -0.5625 17.625 C-1.94791992 17.62983398 -1.94791992 17.62983398 -3.36132812 17.63476562 C-10.23294827 17.57955173 -10.23294827 17.57955173 -12.5 15.3125 C-12.80078125 12.34375 -12.80078125 12.34375 -12.8125 8.8125 C-12.82925781 7.6471875 -12.84601563 6.481875 -12.86328125 5.28125 C-12.74339844 4.3015625 -12.62351562 3.321875 -12.5 2.3125 C-8.32856144 -0.46845904 -4.90037332 -0.01820347 0 0 Z " fill="#F6FDFB" transform="translate(137.5,74.6875)"/>
</svg>
