<?xml version="1.0" encoding="UTF-8"?>
<svg version="1.1" xmlns="http://www.w3.org/2000/svg" width="200" height="200">
<path d="M0 0 C1.87975525 -0.01073296 1.87975525 -0.01073296 3.79748535 -0.02168274 C5.18386816 -0.02452283 6.57025124 -0.02723458 7.95663452 -0.02983093 C9.4188147 -0.03609854 10.8809933 -0.0427456 12.34317017 -0.04974365 C17.14318743 -0.0707551 21.9432049 -0.08114486 26.74325562 -0.09111023 C28.39854321 -0.09515919 30.05383063 -0.09927616 31.70911789 -0.10346031 C39.48856887 -0.12250737 47.26801041 -0.13673814 55.04748023 -0.14507228 C64.01267201 -0.1548364 72.97761636 -0.18113629 81.94272101 -0.22157317 C88.88133149 -0.25178997 95.81987127 -0.26654651 102.75854623 -0.26985329 C106.898231 -0.27219787 111.03765128 -0.28108041 115.17726517 -0.30631447 C119.07616274 -0.32969727 122.97462362 -0.33378785 126.8735733 -0.32355309 C128.29811689 -0.32306005 129.72268272 -0.32931159 131.14715958 -0.34310913 C143.25126179 -0.45371195 151.99607326 1.48273452 160.91122437 9.92451477 C166.6484861 16.36337458 169.00544122 22.73468102 169.03886414 31.25547791 C169.04959709 33.13523315 169.04959709 33.13523315 169.06054688 35.05296326 C169.06338697 36.43934606 169.06609872 37.82572914 169.06869507 39.21211243 C169.07496267 40.67429261 169.08160974 42.1364712 169.08860779 43.59864807 C169.10961923 48.39866534 169.120009 53.19868281 169.12997437 57.99873352 C169.13402333 59.65402111 169.13814029 61.30930854 169.14232445 62.96459579 C169.1613715 70.74404678 169.17560228 78.52348832 169.18393642 86.30295813 C169.19370054 95.26814992 169.22000043 104.23309427 169.26043731 113.19819891 C169.2906541 120.13680939 169.30541064 127.07534917 169.30871743 134.01402414 C169.31106201 138.1537089 169.31994455 142.29312919 169.3451786 146.43274307 C169.3685614 150.33164065 169.37265198 154.23010153 169.36241722 158.12905121 C169.36192418 159.5535948 169.36817573 160.97816063 169.38197327 162.40263748 C169.49257609 174.5067397 167.55612961 183.25155117 159.11434937 192.16670227 C152.67548955 197.903964 146.30418311 200.26091913 137.78338623 200.29434204 C135.90363098 200.305075 135.90363098 200.305075 133.98590088 200.31602478 C132.59951807 200.31886487 131.21313499 200.32157662 129.82675171 200.32417297 C128.36457153 200.33044058 126.90239293 200.33708764 125.44021606 200.34408569 C120.6401988 200.36509714 115.84018133 200.3754869 111.04013062 200.38545227 C109.38484302 200.38950123 107.7295556 200.3936182 106.07426834 200.39780235 C98.29481736 200.41684941 90.51537582 200.43108018 82.735906 200.43941432 C73.77071422 200.44917844 64.80576987 200.47547833 55.84066522 200.51591522 C48.90205474 200.54613201 41.96351496 200.56088855 35.02484 200.56419533 C30.88515523 200.56653991 26.74573495 200.57542245 22.60612106 200.60065651 C18.70722349 200.62403931 14.80876261 200.62812989 10.90981293 200.61789513 C9.48526934 200.61740209 8.06070351 200.62365363 6.63622665 200.63745117 C-5.46787556 200.748054 -14.21268703 198.81160752 -23.12783813 190.36982727 C-28.86509987 183.93096746 -31.22205499 177.55966102 -31.25547791 169.03886414 C-31.26263321 167.78569397 -31.26978851 166.5325238 -31.27716064 165.24137878 C-31.28000074 163.85499598 -31.28271249 162.4686129 -31.28530884 161.08222961 C-31.29157644 159.62004943 -31.29822351 158.15787084 -31.30522156 156.69569397 C-31.326233 151.8956767 -31.33662277 147.09565924 -31.34658813 142.29560852 C-31.3506371 140.64032093 -31.35475406 138.9850335 -31.35893822 137.32974625 C-31.37798527 129.55029526 -31.39221605 121.77085372 -31.40055019 113.99138391 C-31.41031431 105.02619212 -31.4366142 96.06124777 -31.47705108 87.09614313 C-31.50726787 80.15753265 -31.52202441 73.21899287 -31.5253312 66.2803179 C-31.52767578 62.14063314 -31.53655832 58.00121285 -31.56179237 53.86159897 C-31.58517517 49.96270139 -31.58926575 46.06424052 -31.57903099 42.16529083 C-31.57853795 40.74074725 -31.5847895 39.31618141 -31.59858704 37.89170456 C-31.70918986 25.78760234 -29.77274338 17.04279088 -21.33096313 8.12763977 C-14.89210332 2.39037804 -8.52079688 0.03342291 0 0 Z " fill="#4C4C4C" transform="translate(31.108306884765625,-0.1471710205078125)"/>
<path d="M0 0 C1.53570396 -0.00832352 1.53570396 -0.00832352 3.10243225 -0.01681519 C6.46712906 -0.02857038 9.8304669 -0.00437836 13.19506836 0.02148438 C15.54341063 0.02319652 17.89175481 0.02312874 20.24009705 0.0213623 C25.15341563 0.02301317 30.06627666 0.04167052 34.97949219 0.07324219 C41.2698065 0.11294027 47.55952256 0.11728324 53.84993839 0.10977936 C58.69617673 0.10670664 63.54228117 0.11884071 68.38848686 0.13591003 C70.70766802 0.14292871 73.02686436 0.14606594 75.34605598 0.1452179 C78.5890548 0.1470202 81.83134316 0.16843939 85.07421875 0.1953125 C86.02766174 0.1923819 86.98110474 0.18945129 87.96343994 0.18643188 C94.32045507 0.26750369 99.51238315 0.96771844 104.43334961 5.36914062 C105.13331055 6.26439453 105.13331055 6.26439453 105.84741211 7.17773438 C106.57057617 8.07685547 106.57057617 8.07685547 107.30834961 8.99414062 C109.8534755 12.53852735 109.6225238 15.26512495 109.6652832 19.60009766 C109.67754944 20.67853691 109.67754944 20.67853691 109.69006348 21.77876282 C109.71492574 24.16434905 109.73143967 26.54987553 109.74584961 28.93554688 C109.75117329 29.7511697 109.75649696 30.56679253 109.76198196 31.4071312 C109.78872311 35.72811697 109.80809084 40.04907382 109.82250977 44.37011719 C109.83582583 47.93971516 109.86363302 51.50873832 109.90454102 55.078125 C109.95398463 59.39231383 109.97864576 63.70598291 109.98573685 68.02044296 C109.99243155 69.66062972 110.00760716 71.30080571 110.03162766 72.94083023 C110.24453679 88.36323351 110.24453679 88.36323351 106.13369751 94.0763855 C100.10273813 99.66286393 95.63405144 100.20009843 87.71289062 100.14868164 C86.10447296 100.161605 86.10447296 100.161605 84.46356201 100.17478943 C80.92590055 100.1974559 77.38903081 100.19070867 73.85131836 100.18164062 C71.38801335 100.18687599 68.92471036 100.19315215 66.46141052 100.20042419 C61.30083782 100.21082981 56.14054084 100.20626445 50.97998047 100.19165039 C44.37108719 100.17446568 37.76306355 100.19795445 31.15426731 100.23313999 C26.06782789 100.25511466 20.9815965 100.25367216 15.89512444 100.24537468 C13.45869938 100.24455515 11.02225906 100.25141871 8.58587837 100.26614571 C5.1771534 100.283591 1.76999064 100.26904675 -1.63867188 100.24633789 C-2.64201065 100.25803009 -3.64534943 100.26972229 -4.67909241 100.2817688 C-10.13269534 100.20795556 -13.90571361 99.65336084 -18.15416718 96.07486629 C-22.39755281 91.56511844 -22.97049367 86.90766921 -22.93164062 80.9609375 C-22.93850388 80.21867416 -22.94536713 79.47641083 -22.95243835 78.71165466 C-22.97064818 76.27306662 -22.96687786 73.83512541 -22.96118164 71.39648438 C-22.96574581 69.69307243 -22.97105208 67.98966233 -22.97706604 66.28625488 C-22.98598535 62.72217308 -22.983587 59.1583155 -22.97363281 55.59423828 C-22.96213649 51.03447031 -22.98237038 46.475476 -23.01154995 41.91580963 C-23.02992321 38.40011712 -23.02961741 34.88460971 -23.02391243 31.36888123 C-23.0237594 29.68801283 -23.02978896 28.00713175 -23.0422039 26.3263092 C-23.05713642 23.97356012 -23.04642238 21.6222367 -23.02929688 19.26953125 C-23.03896484 18.58052231 -23.04863281 17.89151337 -23.05859375 17.18162537 C-22.98256808 12.17619332 -21.80084485 9.37307135 -18.52758789 5.61523438 C-12.73757437 0.56717184 -7.48106466 -0.10428971 0 0 Z " fill="#4D4D4D" transform="translate(56.527587890625,49.384765625)"/>
<path d="M0 0 C1.53570396 -0.00832352 1.53570396 -0.00832352 3.10243225 -0.01681519 C6.46712906 -0.02857038 9.8304669 -0.00437836 13.19506836 0.02148438 C15.54341063 0.02319652 17.89175481 0.02312874 20.24009705 0.0213623 C25.15341563 0.02301317 30.06627666 0.04167052 34.97949219 0.07324219 C41.2698065 0.11294027 47.55952256 0.11728324 53.84993839 0.10977936 C58.69617673 0.10670664 63.54228117 0.11884071 68.38848686 0.13591003 C70.70766802 0.14292871 73.02686436 0.14606594 75.34605598 0.1452179 C78.5890548 0.1470202 81.83134316 0.16843939 85.07421875 0.1953125 C86.02766174 0.1923819 86.98110474 0.18945129 87.96343994 0.18643188 C94.32045507 0.26750369 99.51238315 0.96771844 104.43334961 5.36914062 C105.13331055 6.26439453 105.13331055 6.26439453 105.84741211 7.17773438 C106.57057617 8.07685547 106.57057617 8.07685547 107.30834961 8.99414062 C109.8534755 12.53852735 109.6225238 15.26512495 109.6652832 19.60009766 C109.67754944 20.67853691 109.67754944 20.67853691 109.69006348 21.77876282 C109.71492574 24.16434905 109.73143967 26.54987553 109.74584961 28.93554688 C109.75117329 29.7511697 109.75649696 30.56679253 109.76198196 31.4071312 C109.78872311 35.72811697 109.80809084 40.04907382 109.82250977 44.37011719 C109.83582583 47.93971516 109.86363302 51.50873832 109.90454102 55.078125 C109.95398463 59.39231383 109.97864576 63.70598291 109.98573685 68.02044296 C109.99243155 69.66062972 110.00760716 71.30080571 110.03162766 72.94083023 C110.24453679 88.36323351 110.24453679 88.36323351 106.13369751 94.0763855 C100.10273813 99.66286393 95.63405144 100.20009843 87.71289062 100.14868164 C86.10447296 100.161605 86.10447296 100.161605 84.46356201 100.17478943 C80.92590055 100.1974559 77.38903081 100.19070867 73.85131836 100.18164062 C71.38801335 100.18687599 68.92471036 100.19315215 66.46141052 100.20042419 C61.30083782 100.21082981 56.14054084 100.20626445 50.97998047 100.19165039 C44.37108719 100.17446568 37.76306355 100.19795445 31.15426731 100.23313999 C26.06782789 100.25511466 20.9815965 100.25367216 15.89512444 100.24537468 C13.45869938 100.24455515 11.02225906 100.25141871 8.58587837 100.26614571 C5.1771534 100.283591 1.76999064 100.26904675 -1.63867188 100.24633789 C-2.64201065 100.25803009 -3.64534943 100.26972229 -4.67909241 100.2817688 C-10.13269534 100.20795556 -13.90571361 99.65336084 -18.15416718 96.07486629 C-22.39755281 91.56511844 -22.97049367 86.90766921 -22.93164062 80.9609375 C-22.93850388 80.21867416 -22.94536713 79.47641083 -22.95243835 78.71165466 C-22.97064818 76.27306662 -22.96687786 73.83512541 -22.96118164 71.39648438 C-22.96574581 69.69307243 -22.97105208 67.98966233 -22.97706604 66.28625488 C-22.98598535 62.72217308 -22.983587 59.1583155 -22.97363281 55.59423828 C-22.96213649 51.03447031 -22.98237038 46.475476 -23.01154995 41.91580963 C-23.02992321 38.40011712 -23.02961741 34.88460971 -23.02391243 31.36888123 C-23.0237594 29.68801283 -23.02978896 28.00713175 -23.0422039 26.3263092 C-23.05713642 23.97356012 -23.04642238 21.6222367 -23.02929688 19.26953125 C-23.03896484 18.58052231 -23.04863281 17.89151337 -23.05859375 17.18162537 C-22.98256808 12.17619332 -21.80084485 9.37307135 -18.52758789 5.61523438 C-12.73757437 0.56717184 -7.48106466 -0.10428971 0 0 Z M-13.13652039 11.71383667 C-14.82952018 15.24498501 -15.02877007 17.70533981 -15.02929688 21.62109375 C-15.03469986 22.30629593 -15.04010284 22.99149811 -15.04566956 23.69746399 C-15.05812862 25.95174997 -15.04168648 28.2047516 -15.02368164 30.45898438 C-15.0238367 32.03169827 -15.02532677 33.60441255 -15.02809143 35.17712402 C-15.02947415 38.46900377 -15.01693921 41.76044715 -14.99414062 45.05224609 C-14.96575601 49.26568341 -14.96849483 53.47839596 -14.98123074 57.6918869 C-14.98819538 60.93819335 -14.98038974 64.18433313 -14.96797371 67.43061829 C-14.96346682 68.98390564 -14.96311575 70.53721094 -14.96703911 72.09049988 C-14.96995915 74.26382948 -14.95340828 76.43617053 -14.93164062 78.609375 C-14.92623764 79.84449829 -14.92083466 81.07962158 -14.91526794 82.35217285 C-14.49489351 85.89041947 -13.65695108 87.78721356 -11.52758789 90.61523438 C-9.22176605 91.7681453 -7.90026346 91.74809062 -5.33451843 91.7624054 C-4.45550873 91.7695607 -3.57649902 91.776716 -2.67085266 91.78408813 C-1.22068001 91.78812149 -1.22068001 91.78812149 0.25878906 91.79223633 C1.27517456 91.79880753 2.29156006 91.80537872 3.33874512 91.81214905 C6.71272855 91.83191032 10.08666744 91.84355051 13.46069336 91.85351562 C14.6110375 91.85759115 15.76138165 91.86166668 16.9465847 91.86586571 C23.03421221 91.88673778 29.12181709 91.90103501 35.20947266 91.91040039 C41.50463418 91.92147162 47.79944288 91.95587686 54.09447956 91.99557209 C58.92859058 92.02168744 63.76261686 92.03008769 68.59679222 92.03368187 C70.91765922 92.03856039 73.23852213 92.05021012 75.55932045 92.06871986 C78.80578387 92.09300424 82.05132559 92.09216562 85.29785156 92.08520508 C86.25856064 92.09801514 87.21926971 92.1108252 88.20909119 92.12402344 C92.49596846 92.09048166 94.83269791 92.01161968 98.54582214 89.71086121 C101.82731141 86.14145771 101.60687574 83.82259247 101.63354492 79.04174805 C101.63850983 78.36673752 101.64347473 77.69172699 101.64859009 76.9962616 C101.66321908 74.75856513 101.67001548 72.5209396 101.67553711 70.28320312 C101.68128869 68.72862241 101.68704643 67.17404173 101.69281006 65.61946106 C101.70332265 62.35689971 101.70916338 59.09436302 101.71264648 55.83178711 C101.71812672 51.65533734 101.74214334 47.47921433 101.77061844 43.30286694 C101.78926331 40.09006303 101.79445143 36.87733746 101.79598236 33.66448402 C101.7990061 32.12512745 101.80702526 30.58577217 101.82016754 29.04646873 C101.8372646 26.88969639 101.83533918 24.73371733 101.82885742 22.5769043 C101.83250305 21.35049728 101.83614868 20.12409027 101.83990479 18.86051941 C101.43915597 15.32155332 100.6014338 13.44122102 98.47241211 10.61523438 C96.14840514 9.45323089 94.78521039 9.47977891 92.19668579 9.46133423 C90.85076103 9.44843353 90.85076103 9.44843353 89.47764587 9.43527222 C87.99706444 9.42888229 87.99706444 9.42888229 86.48657227 9.42236328 C84.93032387 9.41009705 84.93032387 9.41009705 83.34263611 9.39758301 C79.89892155 9.37270786 76.4552482 9.35620928 73.01147461 9.34179688 C71.83781719 9.3364732 70.66415977 9.33114952 69.45493698 9.32566452 C63.24527387 9.29892625 57.03563093 9.27955176 50.82592773 9.26513672 C44.40055569 9.24846935 37.97569462 9.20367541 31.55051613 9.15276527 C26.61951075 9.11917371 21.68862797 9.10756823 16.75751877 9.10190964 C14.38836121 9.0951769 12.01921229 9.07990286 9.65016556 9.05601883 C6.33869511 9.02453328 3.02862075 9.02430578 -0.28295898 9.03173828 C-1.26596481 9.01533295 -2.24897064 8.99892761 -3.26176453 8.98202515 C-8.63575634 9.00287546 -8.63575634 9.00287546 -13.13652039 11.71383667 Z " fill="#F9F9F9" transform="translate(56.527587890625,49.384765625)"/>
<path d="M0 0 C0.93199219 -0.00257812 1.86398438 -0.00515625 2.82421875 -0.0078125 C3.80003906 -0.00007813 4.77585937 0.00765625 5.78125 0.015625 C6.75707031 0.00789063 7.73289062 0.00015625 8.73828125 -0.0078125 C9.67027344 -0.00523438 10.60226563 -0.00265625 11.5625 0 C12.41908203 0.00225586 13.27566406 0.00451172 14.15820312 0.00683594 C16.28125 0.265625 16.28125 0.265625 18.28125 2.265625 C18.58203125 4.98046875 18.58203125 4.98046875 18.59375 8.203125 C18.61050781 9.26402344 18.62726563 10.32492188 18.64453125 11.41796875 C18.28125 14.265625 18.28125 14.265625 17.0300293 15.91870117 C14.84810874 17.59923387 13.66969168 17.65191686 10.9375 17.6640625 C10.10347656 17.66792969 9.26945312 17.67179687 8.41015625 17.67578125 C7.10884766 17.65837891 7.10884766 17.65837891 5.78125 17.640625 C4.91371094 17.65222656 4.04617187 17.66382812 3.15234375 17.67578125 C2.31832031 17.67191406 1.48429687 17.66804688 0.625 17.6640625 C-0.51678711 17.65898682 -0.51678711 17.65898682 -1.68164062 17.65380859 C-4.25904192 17.16266909 -5.14953715 16.33882309 -6.71875 14.265625 C-7.08203125 11.41796875 -7.08203125 11.41796875 -7.03125 8.203125 C-7.02738281 7.13964844 -7.02351563 6.07617188 -7.01953125 4.98046875 C-6.48788868 0.18187673 -4.29060279 0.01129956 0 0 Z " fill="#F9F9F9" transform="translate(56.71875,74.734375)"/>
<path d="M0 0 C0.91442368 -0.00637985 1.82884735 -0.0127597 2.77098083 -0.01933289 C3.76573929 -0.02044571 4.76049774 -0.02155853 5.78540039 -0.02270508 C6.80026016 -0.02603348 7.81511993 -0.02936188 8.86073303 -0.03279114 C11.01196844 -0.03786483 13.16321174 -0.04019933 15.31445312 -0.04003906 C18.615447 -0.04222467 21.91610639 -0.0603734 25.21704102 -0.0793457 C27.30232632 -0.08227964 29.38761323 -0.08426443 31.47290039 -0.08520508 C32.46563461 -0.09239059 33.45836884 -0.09957611 34.48118591 -0.10697937 C35.39876175 -0.10390274 36.31633759 -0.10082611 37.26171875 -0.09765625 C38.07144638 -0.09908127 38.88117401 -0.10050629 39.71543884 -0.10197449 C41.69555664 0.14526367 41.69555664 0.14526367 43.69555664 2.14526367 C43.14000109 6.70081923 43.14000109 6.70081923 41.69555664 8.14526367 C40.26364803 8.24858294 38.82672861 8.28376253 37.39111328 8.29052734 C36.01947777 8.30009712 36.01947777 8.30009712 34.62013245 8.30986023 C33.12799477 8.31152946 33.12799477 8.31152946 31.60571289 8.31323242 C30.59085312 8.31656082 29.57599335 8.31988922 28.53038025 8.32331848 C26.37914484 8.32839217 24.22790154 8.33072667 22.07666016 8.33056641 C18.77566629 8.33275201 15.47500689 8.35090074 12.17407227 8.36987305 C10.08878696 8.37280698 8.00350005 8.37479178 5.91821289 8.37573242 C4.92547867 8.38291794 3.93274445 8.39010345 2.90992737 8.39750671 C1.99235153 8.39443008 1.0747757 8.39135345 0.12939453 8.38818359 C-0.6803331 8.38960861 -1.49006073 8.39103363 -2.32432556 8.39250183 C-4.30444336 8.14526367 -4.30444336 8.14526367 -6.30444336 6.14526367 C-5.6673014 0.92069963 -5.15960204 0.02431275 0 0 Z " fill="#FDFDFD" transform="translate(56.304443359375,99.854736328125)"/>
<path d="M0 0 C1.0725 0.00515625 2.145 0.0103125 3.25 0.015625 C4.85875 0.00789063 4.85875 0.00789063 6.5 0 C9.25 0.265625 9.25 0.265625 11.25 2.265625 C11.5 4.765625 11.5 4.765625 11.25 7.265625 C9.25 9.265625 9.25 9.265625 6.5 9.53125 C5.4275 9.52609375 4.355 9.5209375 3.25 9.515625 C1.64125 9.52335937 1.64125 9.52335937 0 9.53125 C-2.75 9.265625 -2.75 9.265625 -4.75 7.265625 C-5 4.765625 -5 4.765625 -4.75 2.265625 C-2.75 0.265625 -2.75 0.265625 0 0 Z " fill="#F0F0F0" transform="translate(129.75,115.734375)"/>
<path d="M0 0 C1.0725 0.00515625 2.145 0.0103125 3.25 0.015625 C4.85875 0.00789063 4.85875 0.00789063 6.5 0 C9.25 0.265625 9.25 0.265625 11.25 2.265625 C11.5 4.765625 11.5 4.765625 11.25 7.265625 C9.25 9.265625 9.25 9.265625 6.5 9.53125 C5.4275 9.52609375 4.355 9.5209375 3.25 9.515625 C1.64125 9.52335937 1.64125 9.52335937 0 9.53125 C-2.75 9.265625 -2.75 9.265625 -4.75 7.265625 C-5 4.765625 -5 4.765625 -4.75 2.265625 C-2.75 0.265625 -2.75 0.265625 0 0 Z " fill="#F0F0F0" transform="translate(104.75,115.734375)"/>
<path d="M0 0 C1.0725 0.00515625 2.145 0.0103125 3.25 0.015625 C4.85875 0.00789063 4.85875 0.00789063 6.5 0 C9.25 0.265625 9.25 0.265625 11.25 2.265625 C11.5 4.765625 11.5 4.765625 11.25 7.265625 C9.25 9.265625 9.25 9.265625 6.5 9.53125 C5.4275 9.52609375 4.355 9.5209375 3.25 9.515625 C1.64125 9.52335937 1.64125 9.52335937 0 9.53125 C-2.75 9.265625 -2.75 9.265625 -4.75 7.265625 C-5 4.765625 -5 4.765625 -4.75 2.265625 C-2.75 0.265625 -2.75 0.265625 0 0 Z " fill="#F0F0F0" transform="translate(79.75,115.734375)"/>
<path d="M0 0 C1.45212891 -0.03867188 1.45212891 -0.03867188 2.93359375 -0.078125 C5.5625 0.25 5.5625 0.25 7.421875 1.63671875 C8.5625 3.25 8.5625 3.25 8.375 5.3125 C7.5625 7.25 7.5625 7.25 5.5625 9.25 C3.06640625 9.55078125 3.06640625 9.55078125 0.125 9.5625 C-1.32712891 9.58763672 -1.32712891 9.58763672 -2.80859375 9.61328125 C-5.4375 9.25 -5.4375 9.25 -7.296875 7.89453125 C-8.4375 6.25 -8.4375 6.25 -8.25 3.625 C-6.81989635 -0.55530297 -3.98067507 0.06343705 0 0 Z " fill="#F0F0F0" transform="translate(58.4375,115.75)"/>
</svg>
